<svg width="146" height="25" viewBox="0 0 146 25" fill="none" xmlns="http://www.w3.org/2000/svg">
<path d="M21.7909 14.9467C21.3549 15.2132 20.8462 15.2616 20.4586 15.0436C19.9741 14.7529 19.6834 14.0988 19.6834 13.2025V10.4651C19.6834 9.15698 19.1747 8.21221 18.3026 7.96996C16.8249 7.53391 15.7105 9.35077 15.2987 10.0291L12.6824 14.22V9.06007C12.6582 7.87306 12.2706 7.17054 11.5439 6.95252C11.0594 6.80717 10.3326 6.87985 9.6301 7.94574L3.79192 17.2965C3.01672 15.8188 2.6049 14.1715 2.6049 12.5C2.6049 6.85562 7.13494 2.27713 12.6824 2.27713C18.2299 2.27713 22.7599 6.85562 22.7599 12.5V12.5242V12.5485C22.8084 13.6386 22.4692 14.5107 21.7909 14.9467ZM24.9886 12.5V12.4758V12.4515C24.9644 5.59593 19.4411 0 12.6824 0C5.89948 0 0.376221 5.59593 0.376221 12.5C0.376221 19.3798 5.89948 25 12.6824 25C15.8074 25 18.7628 23.813 21.04 21.657C21.5002 21.2209 21.5245 20.5184 21.0884 20.0581C20.6766 19.5979 19.9741 19.5736 19.5138 19.9855C19.5138 19.9855 19.5138 19.9855 19.4896 20.0097C17.6485 21.7539 15.1776 22.7471 12.634 22.7471C9.65432 22.7471 6.98959 21.4389 5.14851 19.3556L10.4053 10.9254V14.8256C10.4053 16.6909 11.132 17.2965 11.7377 17.4661C12.3433 17.6357 13.2638 17.5145 14.257 15.9399L17.1398 11.2645C17.2367 11.1192 17.3094 10.9738 17.4063 10.8769V13.251C17.4063 14.9952 18.1088 16.4002 19.32 17.0785C20.4101 17.7083 21.7909 17.6357 22.9295 16.9331C24.3346 16.0126 25.0855 14.4138 24.9886 12.5ZM42.1398 8.23643C42.4305 8.40601 42.6969 8.81783 42.6969 9.1812C42.6969 9.76259 42.2125 10.2471 41.6553 10.2471C41.5099 10.2471 41.3888 10.1986 41.2677 10.1744C40.6136 9.68992 39.79 9.375 38.9179 9.375C36.8588 9.375 35.4537 11.0465 35.4537 13.1298C35.4537 15.2132 36.883 16.8605 38.9179 16.8605C39.9353 16.8605 40.8559 16.4486 41.5342 15.7946C41.7037 15.6735 41.9218 15.6008 42.1398 15.6008C42.697 15.6008 43.133 16.0368 43.133 16.594C43.133 16.9574 42.915 17.2723 42.6485 17.4419C41.6553 18.2897 40.3229 18.8469 38.9421 18.8469C35.7929 18.8469 33.2251 16.2548 33.2251 13.0572C33.2251 9.85949 35.7929 7.26744 38.9421 7.26744C40.1049 7.24322 41.2192 7.60659 42.1398 8.23643ZM47.9053 10.6589C50.0613 10.6589 51.8539 12.4758 51.8539 14.7287C51.8539 16.9574 50.0371 18.8711 47.9053 18.8711C45.6524 18.8711 43.7871 16.9816 43.7871 14.7287C43.7871 12.4758 45.6524 10.6589 47.9053 10.6589ZM47.8811 16.8605C48.8258 16.8605 49.6252 15.9641 49.6252 14.7529C49.6252 13.5417 48.8258 12.7665 47.8811 12.7665C46.8636 12.7665 46.0158 13.5174 46.0158 14.7529C46.0158 15.9399 46.8636 16.8605 47.8811 16.8605ZM53.2105 17.6114V11.8944C53.2105 11.2645 53.695 10.7558 54.3249 10.7558C54.9305 10.7558 55.4392 11.2645 55.4392 11.8944V17.6114C55.4392 18.2413 54.9305 18.75 54.3249 18.75C53.7192 18.75 53.2105 18.2171 53.2105 17.6114ZM53.0409 8.5998C53.0409 7.84884 53.6223 7.26744 54.3249 7.26744C55.0516 7.26744 55.633 7.87306 55.633 8.5998C55.633 9.32655 55.0516 9.90794 54.3249 9.90794C53.5981 9.88372 53.0409 9.30232 53.0409 8.5998ZM59.7028 14.5107V17.6114C59.7028 18.2413 59.194 18.75 58.5884 18.75C57.9828 18.75 57.4741 18.2413 57.4741 17.6114V11.6279C57.4741 11.1434 57.8617 10.7558 58.3462 10.7558C58.8307 10.7558 59.194 11.1676 59.194 11.6279C60.0904 10.78 60.8898 10.6589 61.6408 10.6589C63.8694 10.6589 64.8626 12.3304 64.8626 14.2442V17.6114C64.8626 18.2413 64.3539 18.75 63.7483 18.75C63.1427 18.75 62.634 18.2413 62.634 17.6114V14.5107C62.634 13.5417 62.5128 12.718 61.1078 12.718C60.1146 12.718 59.7028 13.5417 59.7028 14.5107ZM72.0816 15.6977C71.8152 15.6977 71.6456 15.5765 71.5002 15.407L68.9082 12.5969V17.6114C68.9082 18.2413 68.3995 18.75 67.7938 18.75C67.1882 18.75 66.6795 18.2413 66.6795 17.6114V7.67927C66.7522 7.50969 66.9218 7.38857 67.0913 7.38857C67.2851 7.38857 67.4547 7.55814 67.5758 7.67927L71.7183 12.3304C71.8394 12.4758 71.9847 12.5485 72.0816 12.5485C72.1543 12.5485 72.3239 12.4758 72.445 12.3304L76.5874 7.67927C76.7086 7.55814 76.8539 7.38857 77.0719 7.38857C77.2657 7.38857 77.4353 7.50969 77.4838 7.67927V17.6114C77.4838 18.2413 76.9993 18.75 76.3694 18.75C75.7638 18.75 75.2551 18.2413 75.2551 17.6114V12.5969L72.663 15.407C72.4692 15.5765 72.2997 15.6977 72.0816 15.6977ZM82.789 16.8605C83.7822 16.8605 84.6301 15.9641 84.6301 14.7529C84.6301 13.5417 83.758 12.7422 82.789 12.7422C81.82 12.7422 81.0206 13.5659 81.0206 14.7529C81.0206 15.9157 81.7958 16.8605 82.789 16.8605ZM85.163 17.8779L85.1146 17.6114C84.6785 18.4593 83.2977 18.8469 82.4256 18.8469C80.3423 18.8469 78.7919 16.9574 78.7919 14.7045C78.7919 12.4758 80.3665 10.6347 82.5467 10.6347C82.9101 10.6347 84.1698 10.7316 85.1388 11.8702L85.1872 11.6037C85.1872 11.1192 85.5506 10.7316 86.0351 10.7316C86.5196 10.7316 86.9072 11.1434 86.9072 11.6037V17.8537C86.9072 18.3382 86.5196 18.7258 86.0351 18.7258C85.5264 18.75 85.163 18.3382 85.163 17.8779ZM93.0361 12.718H92.7938C91.3888 12.7907 91.1223 13.5901 91.1223 14.5107V17.6114C91.1223 18.2413 90.6136 18.75 90.008 18.75C89.4024 18.75 88.8936 18.2413 88.8936 17.6114V11.6279C88.8936 11.1434 89.2812 10.7558 89.7657 10.7558C90.2502 10.7558 90.6136 11.1676 90.6136 11.6279C91.4373 10.8527 92.1155 10.6831 92.7938 10.6589H93.0119C93.5448 10.6589 94.0293 11.1192 94.0293 11.7006C94.0535 12.2335 93.569 12.718 93.0361 12.718ZM101.636 17.0785C101.733 17.2481 101.805 17.4176 101.805 17.6114C101.805 18.1928 101.273 18.7258 100.691 18.7258C100.304 18.7258 99.9644 18.4351 99.6979 18.0959L97.1301 15.1163V17.5872C97.1301 18.2171 96.6214 18.7258 96.0157 18.7258C95.4101 18.7258 94.9014 18.2171 94.9014 17.5872V8.50291C94.9014 7.87306 95.3859 7.36434 96.0157 7.36434C96.6456 7.36434 97.1301 7.87306 97.1301 8.50291V14.1715L99.6979 11.3372C99.9644 11.0465 100.279 10.7316 100.667 10.7316C101.224 10.7316 101.733 11.2403 101.733 11.8217C101.733 11.9913 101.684 12.1851 101.587 12.3304L99.5526 14.5591L101.636 17.0785ZM105.996 12.7422C105.391 12.7422 104.398 13.0572 104.398 14.0019H107.619C107.595 13.0572 106.578 12.7422 105.996 12.7422ZM108.903 15.4312H104.398C104.398 16.7636 105.681 16.9816 106.239 16.9816C106.65 16.9816 107.232 16.9089 107.692 16.6909C107.837 16.594 108.055 16.5213 108.273 16.5213C108.758 16.5213 109.17 16.9331 109.17 17.4419C109.17 17.781 108.952 18.0717 108.685 18.2413C108.007 18.75 107.111 18.8711 106.263 18.8711C104.01 18.8711 102.145 17.6599 102.145 14.8256C102.145 12.5969 103.283 10.6589 105.948 10.6589C108.104 10.6589 109.727 12.064 109.775 14.5591C109.775 15.0194 109.388 15.4312 108.903 15.4312ZM115.105 18.8469H114.499C112.804 18.8469 111.81 18.0959 111.81 15.4554V12.718H111.229C110.696 12.718 110.236 12.2335 110.236 11.7006C110.236 11.1192 110.72 10.6589 111.229 10.6589H111.81V8.55136C111.81 7.92151 112.295 7.41279 112.925 7.41279C113.53 7.41279 114.039 7.92151 114.039 8.55136V10.6589H114.96C115.492 10.6589 115.953 11.1192 115.953 11.7006C115.953 12.2335 115.468 12.718 114.96 12.718H114.039V15.0194C114.039 16.5455 114.112 16.8605 114.79 16.8605H115.105C115.638 16.8605 116.098 17.2965 116.098 17.8537C116.098 18.3866 115.638 18.8469 115.105 18.8469ZM125.885 8.23643C126.176 8.40601 126.442 8.81783 126.442 9.1812C126.442 9.76259 125.958 10.2471 125.4 10.2471C125.255 10.2471 125.134 10.1986 125.013 10.1744C124.359 9.68992 123.535 9.375 122.663 9.375C120.604 9.375 119.199 11.0465 119.199 13.1298C119.199 15.2132 120.628 16.8605 122.663 16.8605C123.68 16.8605 124.601 16.4486 125.279 15.7946C125.449 15.6735 125.667 15.6008 125.885 15.6008C126.442 15.6008 126.878 16.0368 126.878 16.594C126.878 16.9574 126.66 17.2723 126.394 17.4419C125.4 18.2897 124.068 18.8469 122.687 18.8469C119.538 18.8469 116.97 16.2548 116.97 13.0572C116.97 9.85949 119.538 7.26744 122.687 7.26744C123.85 7.24322 124.989 7.60659 125.885 8.23643ZM131.529 16.8605C132.523 16.8605 133.37 15.9641 133.37 14.7529C133.37 13.5417 132.498 12.7422 131.529 12.7422C130.536 12.7422 129.761 13.5659 129.761 14.7529C129.761 15.9157 130.56 16.8605 131.529 16.8605ZM133.903 17.8779L133.855 17.6114C133.419 18.4593 132.038 18.8469 131.166 18.8469C129.083 18.8469 127.532 16.9574 127.532 14.7045C127.532 12.4758 129.107 10.6347 131.287 10.6347C131.65 10.6347 132.91 10.7316 133.879 11.8702L133.928 11.6037C133.928 11.1192 134.291 10.7316 134.775 10.7316C135.26 10.7316 135.648 11.1434 135.648 11.6037V17.8537C135.648 18.3382 135.26 18.7258 134.775 18.7258C134.267 18.75 133.903 18.3382 133.903 17.8779ZM141.728 16.8605C142.721 16.8605 143.496 15.9157 143.496 14.7529C143.496 13.5417 142.697 12.7422 141.728 12.7422C140.735 12.7422 139.887 13.5417 139.887 14.7529C139.887 15.9641 140.735 16.8605 141.728 16.8605ZM139.887 18.1928V21.0271C139.887 21.657 139.378 22.1657 138.773 22.1657C138.167 22.1657 137.658 21.657 137.658 21.0271V11.6279C137.658 11.1434 138.046 10.7558 138.53 10.7558C139.015 10.7558 139.378 11.1676 139.378 11.7248C140.202 10.8769 141.219 10.6589 141.994 10.6589C144.15 10.6589 145.749 12.4758 145.749 14.7287C145.749 16.9574 144.223 18.8711 142.116 18.8711C141.461 18.8469 140.492 18.6531 139.887 18.1928Z" fill="#79747E"/>
</svg>
