<svg width="140" height="25" viewBox="0 0 140 25" fill="none" xmlns="http://www.w3.org/2000/svg">
<path d="M28.13 6.97952C23.0668 6.97952 19.1106 10.839 19.1106 16.0056C19.1106 21.1723 22.9668 24.9987 28.13 24.9987C33.2933 24.9987 37.2166 21.1063 37.2166 15.9726C37.2166 10.872 33.3603 6.97952 28.13 6.97952ZM28.1629 21.2739C25.2796 21.2739 23.1667 19.0254 23.1667 16.0056C23.1667 12.9516 25.2454 10.7043 28.1288 10.7043C31.0463 10.7043 33.1579 12.9859 33.1579 16.0056C33.1579 19.0254 31.0463 21.2739 28.1629 21.2739ZM38.3223 10.905H40.8375V24.6633H44.8608V7.3149H38.3223V10.905ZM8.98532 10.7043C11.0982 10.7043 12.7745 12.0128 13.4109 13.959H17.6695C16.8978 9.79851 13.478 6.97952 9.01948 6.97952C3.95622 6.97952 0 10.839 0 16.0056C0 21.1723 3.85627 24.9987 9.01948 24.9987C13.378 24.9987 16.8649 22.1797 17.6366 17.9849H13.4122C12.8087 19.9311 11.1323 21.2739 9.01948 21.2739C6.10197 21.2739 4.05744 19.0254 4.05744 16.0056C4.05617 12.9529 6.06781 10.7043 8.98532 10.7043ZM114.767 14.3287L111.817 13.893C110.409 13.6923 109.403 13.2222 109.403 12.1144C109.403 10.9063 110.711 10.3029 112.487 10.3029C114.432 10.3029 115.673 11.1413 115.941 12.5172H119.83C119.394 9.02739 116.712 6.98079 112.589 6.98079C108.33 6.98079 105.514 9.16205 105.514 12.2491C105.514 15.2015 107.358 16.914 111.079 17.4501L114.03 17.8858C115.472 18.0865 116.276 18.6582 116.276 19.7317C116.276 21.1075 114.868 21.6779 112.924 21.6779C110.543 21.6779 109.202 20.7048 109 19.2286H105.044C105.414 22.618 108.062 25 112.89 25C117.282 25 120.199 22.9864 120.199 19.5297C120.199 16.4427 118.086 14.8318 114.767 14.3287ZM42.8492 0.167689C41.374 0.167689 40.2669 1.24117 40.2669 2.71736C40.2669 4.19355 41.3727 5.26704 42.8492 5.26704C44.3244 5.26704 45.4314 4.19355 45.4314 2.71736C45.4301 1.24117 44.3244 0.167689 42.8492 0.167689ZM101.893 13.254C101.893 9.49616 99.6128 6.97952 94.7849 6.97952C90.2252 6.97952 87.6771 9.29544 87.1735 12.8525H91.1639C91.3651 11.4767 92.438 10.3359 94.7178 10.3359C96.7636 10.3359 97.7694 11.2417 97.7694 12.3495C97.7694 13.7926 95.9248 14.161 93.6449 14.3961C90.5604 14.7314 86.7383 15.8049 86.7383 19.8321C86.7383 22.9534 89.0523 24.9657 92.7403 24.9657C95.6237 24.9657 97.4342 23.7576 98.34 21.8444C98.4741 23.5556 99.7482 24.6633 101.526 24.6633H103.873V21.0732H101.894V13.254H101.893ZM97.9352 17.6165C97.9352 19.9324 95.9235 21.6436 93.4754 21.6436C91.966 21.6436 90.692 21.0059 90.692 19.6644C90.692 17.9531 92.7378 17.4831 94.6153 17.2824C96.4258 17.1147 97.4316 16.712 97.9352 15.9396V17.6165ZM76.5776 6.97952C74.3307 6.97952 72.4531 7.91961 71.1121 9.49616V0H67.0888V24.6646H71.045V22.383C72.3861 24.0269 74.2978 25 76.5776 25C81.4056 25 85.0607 21.1749 85.0607 16.0069C85.0607 10.839 81.3398 6.97952 76.5776 6.97952ZM75.9741 21.2739C73.0908 21.2739 70.9779 19.0254 70.9779 16.0056C70.9779 12.9859 73.1237 10.7043 76.007 10.7043C78.9246 10.7043 80.9691 12.9529 80.9691 16.0056C80.9704 19.0266 78.8575 21.2739 75.9741 21.2739ZM57.4671 6.97952C54.8519 6.97952 53.1414 8.053 52.1356 9.56349V7.3149H48.1452V24.6633H52.1685V15.2345C52.1685 12.5832 53.8449 10.7043 56.3259 10.7043C58.6399 10.7043 60.0809 12.3482 60.0809 14.7314V24.6646H64.1042V14.4304C64.1055 10.0666 61.8598 6.97952 57.4671 6.97952ZM139.376 15.4352C139.376 10.4693 135.755 6.97952 130.893 6.97952C125.73 6.97952 121.941 10.872 121.941 16.0056C121.941 21.4086 125.998 24.9987 130.96 24.9987C135.152 24.9987 138.437 22.5151 139.275 18.9923H135.083C134.48 20.5359 133.005 21.4086 131.026 21.4086C128.444 21.4086 126.499 19.7978 126.064 16.9788H139.375V15.4352H139.376ZM126.301 14.0937C126.938 11.6774 128.749 10.5036 130.827 10.5036C133.107 10.5036 134.851 11.8121 135.253 14.0937H126.301Z" fill="#79747E"/>
</svg>
