<svg width="102" height="25" viewBox="0 0 102 25" fill="none" xmlns="http://www.w3.org/2000/svg">
<path fill-rule="evenodd" clip-rule="evenodd" d="M16.0105 9.82479C16.0231 10.0076 16.1477 10.1439 16.2221 10.2998C16.3224 10.5105 16.447 10.7095 16.5609 10.9138C16.681 11.129 16.8011 11.3441 16.9221 11.5592C17.07 11.8227 17.2197 12.0845 17.3326 12.3659C17.381 12.486 17.4339 12.6044 17.4778 12.7272C17.563 12.9692 17.5074 13.1368 17.3389 13.342C17.3326 13.3492 17.321 13.3519 17.3156 13.36C17.1785 13.567 16.9624 13.6029 16.741 13.6441C16.5447 13.6809 16.3502 13.7293 16.2041 13.8906C16.0553 14.0546 16.0383 14.1873 16.1629 14.3728C16.2857 14.5557 16.4076 14.7395 16.5277 14.9241C16.5537 14.9644 16.5752 15.0084 16.5931 15.0532C16.6783 15.2665 16.5788 15.5372 16.3807 15.6573C16.2794 15.7183 16.1835 15.7891 16.0894 15.8608C16.0132 15.919 16.0177 15.9415 16.0768 16.0266C16.2086 16.2175 16.3251 16.4147 16.3287 16.6594C16.3314 16.8181 16.2732 16.923 16.1351 17.0162C15.9352 17.1506 15.7067 17.2044 15.4942 17.3012C15.2155 17.4276 15.0998 17.6391 15.2881 17.926C15.47 18.2038 15.5444 18.5032 15.4826 18.8241C15.453 18.9765 15.4055 19.1307 15.3203 19.2705C15.202 19.4641 15.0729 19.6469 14.8964 19.7913C14.7915 19.8764 14.6812 19.9472 14.5441 19.9768C14.4123 20.0055 14.2886 20.0718 14.1569 20.0951C13.8181 20.1543 13.4873 20.252 13.1404 20.2762C12.8894 20.2932 12.642 20.347 12.392 20.3775C12.2423 20.3954 12.0908 20.3927 11.942 20.4106C11.3863 20.477 10.8278 20.4563 10.2712 20.4752C10.0937 20.4814 9.92343 20.5424 9.75133 20.5944C9.58909 20.6437 9.4636 20.7468 9.32288 20.8265C9.2673 20.8579 9.2189 20.9153 9.18663 20.9717C9.11941 21.0874 9.06563 21.2102 9.00378 21.3285C8.9249 21.48 8.84154 21.6297 8.76356 21.782C8.68199 21.9407 8.6058 22.102 8.52513 22.2616C8.34945 22.6103 8.17107 22.9581 7.99539 23.3076C7.88693 23.5228 7.78206 23.7406 7.6736 23.9566C7.51674 24.2658 7.35988 24.576 7.20302 24.8861C7.1824 24.9273 7.15641 24.9659 7.10711 25.0008C7.09815 24.2219 7.09008 23.443 7.08022 22.664C7.07036 21.8824 7.05871 21.1017 7.04705 20.295C7.12773 20.2896 7.19406 20.2816 7.26128 20.2816C7.43159 20.2807 7.60189 20.2843 7.7713 20.2843C7.96402 20.2843 7.97029 20.278 7.97029 20.0906C7.97119 19.6631 7.97029 19.2346 7.97029 18.8071V18.6099C8.06441 18.5355 8.16659 18.5534 8.25981 18.5534C8.95 18.5498 9.64019 18.5525 10.3304 18.5561C10.4559 18.557 10.5805 18.5686 10.6737 18.5731C10.7803 18.7112 10.8556 18.8375 10.9569 18.9361C11.1953 19.1674 11.5844 19.2615 11.9044 19.0831C12.0845 18.9837 12.2208 18.8537 12.3194 18.6753C12.4583 18.4234 12.3884 18.0201 12.2019 17.7978C12.0845 17.658 11.9501 17.5674 11.7878 17.5038C11.6292 17.4419 11.4777 17.4527 11.311 17.5002C11.112 17.5567 10.9722 17.6777 10.8449 17.8211C10.7929 17.8802 10.7615 17.9609 10.7319 18.0353C10.7033 18.1061 10.6459 18.1294 10.5849 18.1357C10.4801 18.1465 10.3743 18.1438 10.2685 18.1438C9.24759 18.1447 8.22665 18.1447 7.20571 18.1447C7.04168 18.1447 7.02733 18.1321 7.02465 17.9744C7.02375 17.7117 7.02106 17.4491 7.02106 17.1865C7.02106 16.9507 7.02196 16.9498 7.25411 16.9498C7.59472 16.9498 7.93444 16.9525 8.27505 16.9525C8.3369 16.9525 8.39785 16.9418 8.47225 16.9355V16.7634C8.47225 16.2435 8.47225 15.7227 8.47225 15.2029C8.47225 15.0792 8.46866 15.0729 8.34138 15.0729C7.95774 15.0711 7.57321 15.0711 7.18957 15.0702C7.13221 15.0702 7.07394 15.0702 7.00493 15.0702V14.0887C7.08112 14.0842 7.1573 14.0762 7.23349 14.0762C7.9676 14.0762 8.70171 14.0779 9.43582 14.0779C10.126 14.0788 10.8162 14.0806 11.5064 14.0779C11.8757 14.0771 12.245 14.0708 12.6143 14.0627C12.72 14.06 12.7855 14.0869 12.8437 14.1909C12.9127 14.3146 13.006 14.4419 13.1207 14.5181C13.3215 14.6507 13.5554 14.7233 13.7992 14.6471C13.9489 14.6005 14.0941 14.5396 14.2178 14.4266C14.4814 14.1864 14.5808 13.6298 14.3084 13.3304C14.225 13.239 14.1623 13.1305 14.0475 13.0714C13.8001 12.9432 13.5518 12.9145 13.2838 13.0158C13.0911 13.0884 12.9737 13.2372 12.8527 13.3833C12.8097 13.4353 12.7998 13.5159 12.7747 13.5868C12.6698 13.6136 9.0961 13.6244 8.90608 13.5912C8.9016 13.524 8.89443 13.4532 8.89353 13.3824C8.89263 12.7989 8.89263 12.2153 8.89263 11.6327C8.89263 11.6031 8.89353 11.5745 8.89174 11.5449C8.88546 11.4131 8.86664 11.3943 8.73398 11.3943C8.21858 11.3934 7.70318 11.3943 7.18778 11.3943H6.98969C6.9861 11.328 6.98162 11.276 6.98072 11.2249C6.97893 10.9766 6.98162 10.7292 6.97714 10.4809C6.97355 10.2488 6.9619 10.0157 6.95473 9.78355C6.95294 9.73605 6.95473 9.68764 6.95473 9.62759C7.01927 9.6249 7.07215 9.62042 7.12414 9.62042C8.59684 9.62042 10.0704 9.62042 11.5431 9.61862C11.6534 9.61862 11.7358 9.63117 11.7807 9.75308C11.8291 9.88663 11.9456 9.97627 12.0451 10.0722C12.0899 10.1161 12.158 10.1385 12.2181 10.1627C12.5399 10.2936 12.8267 10.2389 13.0965 10.0166C13.3188 9.83375 13.4183 9.60518 13.4272 9.32373C13.4317 9.18569 13.3735 9.06648 13.308 8.95981C13.1467 8.69718 13.0732 8.63892 12.7666 8.52598C12.6358 8.47758 12.4924 8.47668 12.3543 8.52777C12.3185 8.54122 12.2799 8.54839 12.2441 8.56094C12.1661 8.58693 12.0899 8.61382 12.0325 8.68015C12.0092 8.70794 11.9716 8.72318 11.9402 8.74379C11.925 8.75455 11.9035 8.76172 11.8945 8.77696C11.8237 8.89975 11.7556 9.02435 11.683 9.15521H8.28222C8.27684 9.08709 8.27057 9.0369 8.26967 8.9858C8.26877 8.70256 8.26877 8.42111 8.26788 8.13876C8.26698 7.97473 8.24099 7.94873 8.07337 7.94873C7.75248 7.94873 7.43159 7.94873 7.11069 7.94873H6.96997C6.92694 7.7605 6.91798 6.46528 6.961 6.33172C7.0121 6.32903 7.06857 6.32455 7.12504 6.32455C7.8448 6.32455 8.56367 6.32455 9.28344 6.32455C9.3175 6.32455 9.35156 6.32545 9.38562 6.32455C9.52187 6.31917 9.54696 6.29587 9.54696 6.16052C9.54786 5.86921 9.54786 5.577 9.54786 5.28569V5.11986C9.58909 5.11179 9.62136 5.10014 9.65273 5.10014C9.94405 5.09925 10.2363 5.10104 10.5276 5.09835C10.5993 5.09745 10.6369 5.12524 10.6791 5.1844C10.7534 5.29017 10.8001 5.41297 10.9076 5.49991C11.1595 5.70249 11.44 5.79481 11.7475 5.68635C11.9178 5.6263 12.0872 5.53039 12.1795 5.35291C12.1903 5.3323 12.2064 5.31347 12.2208 5.29375C12.3902 5.05891 12.3911 4.80973 12.2943 4.5471C12.2351 4.38755 12.1293 4.25668 11.9985 4.16794C11.8676 4.0792 11.7188 3.99764 11.5503 3.98867C11.389 3.97971 11.2411 4.01018 11.0923 4.09086C10.8583 4.21814 10.7203 4.41175 10.6271 4.66004H8.99571C8.99213 3.94117 8.98854 3.23036 8.99571 2.50612C9.09521 2.50074 9.17588 2.49357 9.25744 2.49357C9.82125 2.49267 10.385 2.49357 10.9489 2.49357C10.9829 2.49357 11.017 2.49626 11.051 2.49267C11.1416 2.48371 11.1586 2.46668 11.1631 2.37525C11.1658 2.32685 11.1649 2.27844 11.1649 2.22914C11.1649 1.5533 11.1649 0.877454 11.1649 0.201609V0.0142723C11.2366 0.00979054 11.2975 0.00261976 11.3585 0.00261976C11.8058 0.00261976 12.253 0.00979054 12.7003 -6.92759e-05C12.8428 -0.00365466 12.9611 0.0483334 13.0669 0.115559C13.2301 0.219536 13.3833 0.344128 13.5241 0.477683C13.697 0.640818 13.8665 0.808435 14.017 0.995772C14.1578 1.16966 14.303 1.33907 14.4294 1.52462C14.554 1.70747 14.6723 1.88943 14.7081 2.1162C14.7323 2.27127 14.7771 2.42365 14.8202 2.57513C14.8327 2.61905 14.8686 2.65849 14.9008 2.69256C14.9564 2.75261 15.0165 2.80818 15.0774 2.86376C15.2101 2.98387 15.3033 3.13356 15.4064 3.27787C15.5247 3.44459 15.6305 3.61848 15.7192 3.80044C15.8187 4.0057 15.8949 4.22352 15.9756 4.43774C16.041 4.61163 16.0993 4.78821 16.1602 4.963C16.1683 4.98541 16.1737 5.00961 16.1754 5.03292C16.1889 5.24535 16.2104 5.45868 16.2131 5.67111C16.2203 6.41956 16.2221 7.16801 16.223 7.91646C16.223 8.03926 16.2256 8.16206 16.1342 8.27142C16.093 8.32071 16.0921 8.40766 16.0822 8.47847C16.0616 8.62726 16.0742 8.78592 16.024 8.92306C15.9585 9.10143 15.9908 9.27532 15.9836 9.45101L16.0105 9.82479ZM4.16171 19.7321V17.4751C4.26569 17.4464 6.21166 17.4348 6.44381 17.4617C6.47519 17.5585 6.48504 19.5233 6.45278 19.7276C6.41154 19.7321 6.36493 19.742 6.31922 19.742C5.64875 19.7438 4.97829 19.7446 4.30692 19.7446C4.2639 19.7446 4.22087 19.7375 4.16171 19.7321ZM3.6741 7.68789V5.65588C3.69293 5.65229 3.71085 5.64154 3.72071 5.64691C3.84351 5.70966 3.97617 5.68815 4.10524 5.68904C4.59106 5.69083 5.07688 5.68994 5.5627 5.69083C5.61469 5.69083 5.66758 5.69532 5.72853 5.698V7.68341C5.6138 7.72196 3.82469 7.72733 3.6741 7.68789ZM10.3833 1.92976H8.58339C8.54575 1.81324 8.53409 0.32889 8.56726 0.12273C8.66675 0.0904617 10.1377 0.0788092 10.385 0.111078C10.3859 0.712526 10.3842 1.31577 10.3833 1.92976ZM8.1881 3.05378V4.74609C8.07785 4.77925 6.66252 4.78821 6.46712 4.75684V3.05378H8.1881ZM5.47217 11.3289H3.9197C3.88385 11.2222 3.87399 9.90814 3.90715 9.73605C4.0174 9.70736 5.32517 9.70198 5.47128 9.72977C5.50623 9.85885 5.50892 11.1926 5.47217 11.3289ZM5.67206 12.7738V14.1479C5.57346 14.1837 4.45213 14.1945 4.26659 14.1631C4.23253 14.0573 4.22356 12.9512 4.25583 12.7756C4.36787 12.7469 5.51072 12.7433 5.67206 12.7738ZM6.06197 21.0452V22.345C6.00191 22.3494 5.95082 22.3557 5.89883 22.3557C5.62724 22.3566 5.35475 22.3548 5.08316 22.3575C4.97291 22.3584 4.86176 22.37 4.75599 22.3763C4.71207 22.2706 4.69773 21.2478 4.73358 21.0524C4.83487 21.0193 5.87194 21.0112 6.06197 21.0452ZM1.30595 16.6218V15.3624C1.73351 15.3624 2.15211 15.3624 2.5707 15.3624C2.60566 15.4834 2.61283 16.4837 2.57787 16.6218H1.30595ZM6.65177 12.1732H7.81433C7.85018 12.2781 7.85645 13.2228 7.8215 13.3842H6.65804C6.6428 12.9826 6.65087 12.5828 6.65177 12.1732ZM0.772629 9.17583H1.80074V10.2048C1.76668 10.212 1.73441 10.2237 1.70304 10.2237C1.42607 10.2255 1.14999 10.2255 0.873019 10.2237C0.770836 10.2228 0.755598 10.212 0.753805 10.1206C0.748427 9.83375 0.749324 9.54781 0.749324 9.26098C0.749324 9.2332 0.763665 9.20631 0.772629 9.17583ZM2.19692 11.933V12.9441H1.15895C1.15358 12.9001 1.14641 12.867 1.14641 12.8338C1.14551 12.5712 1.14461 12.3095 1.14461 12.0468C1.14461 11.9303 1.15537 11.9142 1.26472 11.9124C1.54618 11.9088 1.82852 11.9106 2.10998 11.9115C2.13687 11.9115 2.16465 11.9249 2.19692 11.933ZM5.67206 15.0729V16.0401C5.5636 16.0831 4.84115 16.0876 4.68339 16.0463V15.0729H5.67206ZM28.0655 18.8689C27.1171 18.8689 26.2665 18.7228 25.5136 18.4315C24.7598 18.1402 24.1216 17.7117 23.599 17.1461C23.0764 16.5814 22.6749 15.8913 22.3961 15.0774C22.1164 14.2635 21.9766 13.3268 21.9766 12.27C21.9766 11.2132 22.1379 10.2765 22.4597 9.46266C22.7815 8.64878 23.2225 7.95859 23.7818 7.39389C24.3412 6.8283 24.9973 6.40074 25.7511 6.10853C26.5049 5.81722 27.3126 5.67111 28.1757 5.67111C28.6983 5.67111 29.1725 5.71055 29.5973 5.78943C30.0222 5.86831 30.3933 5.95705 30.7097 6.05385C31.0252 6.15156 31.287 6.25464 31.494 6.36399C31.7002 6.47334 31.8463 6.55222 31.9314 6.60063L31.2565 8.47847C30.9652 8.29651 30.5484 8.12262 30.0079 7.95859C29.4674 7.79456 28.8803 7.7121 28.2483 7.7121C27.7016 7.7121 27.1907 7.80621 26.7174 7.99444C26.2432 8.18268 25.8336 8.46592 25.4867 8.84239C25.1407 9.21885 24.87 9.69302 24.6755 10.264C24.481 10.835 24.3842 11.4974 24.3842 12.2512C24.3842 12.9199 24.4604 13.5339 24.6119 14.0923C24.7633 14.6516 24.9973 15.1347 25.3137 15.5417C25.6292 15.9486 26.0308 16.265 26.5166 16.49C27.0024 16.715 27.5859 16.827 28.2672 16.827C29.081 16.827 29.7443 16.7446 30.2544 16.5805C30.7644 16.4165 31.1597 16.2614 31.4393 16.1153L32.0596 17.9932C31.9135 18.0909 31.7163 18.1877 31.4671 18.2845C31.2179 18.3822 30.923 18.4763 30.5833 18.5669C30.2427 18.6583 29.86 18.7309 29.4351 18.7856C29.0075 18.8411 28.5513 18.8689 28.0655 18.8689ZM39.1865 13.8189C39.1865 12.8706 38.983 12.1203 38.576 11.5673C38.1691 11.0142 37.6008 10.7382 36.8712 10.7382C36.1416 10.7382 35.5733 11.0151 35.1663 11.5673C34.7585 12.1203 34.5559 12.8706 34.5559 13.8189C34.5559 14.7789 34.7594 15.539 35.1663 16.0974C35.5733 16.6567 36.1416 16.9364 36.8712 16.9364C37.6008 16.9364 38.1682 16.6567 38.576 16.0974C38.983 15.539 39.1865 14.7789 39.1865 13.8189ZM41.447 13.8189C41.447 14.5727 41.3377 15.2593 41.119 15.8787C40.9003 16.499 40.5901 17.0269 40.1895 17.4652C39.7888 17.9027 39.3057 18.2433 38.7401 18.4862C38.1754 18.7291 37.5524 18.851 36.8712 18.851C36.19 18.851 35.5706 18.7291 35.0113 18.4862C34.452 18.2433 33.9724 17.9027 33.5708 17.4652C33.1693 17.0278 32.8565 16.499 32.6315 15.8787C32.4065 15.2593 32.2944 14.5727 32.2944 13.8189C32.2944 13.0651 32.4065 12.3821 32.6315 11.7681C32.8565 11.1541 33.172 10.6288 33.5798 10.1914C33.9867 9.75397 34.4699 9.41695 35.0292 9.17942C35.5876 8.94278 36.2016 8.82357 36.8703 8.82357C37.539 8.82357 38.1557 8.94188 38.7204 9.17942C39.285 9.41605 39.7682 9.75397 40.1697 10.1914C40.5704 10.6288 40.8832 11.155 41.1082 11.7681C41.3341 12.3821 41.447 13.0651 41.447 13.8189ZM42.8319 18.5955V9.0611H45.0378V18.5955H42.8319ZM45.2753 6.27167C45.2753 6.68488 45.1418 7.01295 44.8747 7.25586C44.6076 7.49877 44.2911 7.62067 43.9263 7.62067C43.549 7.62067 43.2272 7.49966 42.9601 7.25586C42.693 7.01295 42.5594 6.68488 42.5594 6.27167C42.5594 5.8459 42.693 5.51246 42.9601 5.26865C43.2272 5.02574 43.549 4.90384 43.9263 4.90384C44.2911 4.90384 44.6067 5.02574 44.8747 5.26865C45.1418 5.51156 45.2753 5.8459 45.2753 6.27167ZM46.9336 9.37034C47.3593 9.24933 47.9115 9.1337 48.5927 9.02435C49.273 8.91499 50.0269 8.86032 50.8533 8.86032C51.6313 8.86032 52.2812 8.96698 52.8037 9.17942C53.3263 9.39185 53.7422 9.68944 54.0524 10.0731C54.3625 10.4558 54.5812 10.9183 54.7085 11.4588C54.8358 11.9993 54.9003 12.5927 54.9003 13.2363V18.5964H52.6944V13.5832C52.6944 13.0731 52.6603 12.6384 52.594 12.2799C52.5268 11.9213 52.4174 11.63 52.2659 11.405C52.1136 11.1801 51.9074 11.016 51.6466 10.9129C51.3848 10.8081 51.0657 10.7561 50.6893 10.7561C50.4096 10.7561 50.1174 10.774 49.8144 10.8108C49.5106 10.8475 49.2856 10.878 49.1404 10.9022V18.5955H46.9345V9.37034H46.9336ZM56.8517 9.49851C57.2039 9.40171 57.6628 9.29235 58.2284 9.17045C58.794 9.04945 59.5255 8.98849 60.4254 8.98849C61.6166 8.98849 62.4789 9.33448 63.014 10.0274C63.075 9.97896 63.1933 9.89649 63.3699 9.78086C63.5456 9.66523 63.7679 9.54692 64.035 9.42501C64.3021 9.30401 64.6149 9.20003 64.9734 9.11488C65.332 9.02973 65.73 8.9876 66.1674 8.9876C66.8845 8.9876 67.4644 9.09426 67.9081 9.3067C68.3518 9.51913 68.6951 9.81672 68.938 10.2004C69.1809 10.5831 69.3449 11.042 69.4301 11.5771C69.5152 12.1123 69.5574 12.6958 69.5574 13.3277V18.5964H68.3724V13.7104C68.3724 13.0902 68.3446 12.5524 68.2899 12.097C68.2353 11.6417 68.1259 11.2643 67.9619 10.9667C67.7978 10.6691 67.5639 10.4442 67.26 10.2918C66.9562 10.1403 66.5609 10.0641 66.0751 10.0641C65.7102 10.0641 65.3795 10.0982 65.0819 10.1645C64.7843 10.2317 64.5262 10.3133 64.3075 10.411C64.0887 10.5087 63.9095 10.6055 63.7697 10.7023C63.6298 10.8 63.5294 10.8726 63.4685 10.921C63.5778 11.2374 63.6603 11.5924 63.715 11.9877C63.7697 12.383 63.7974 12.7989 63.7974 13.2363V18.5964H62.6125V13.7104C62.6125 13.0902 62.5856 12.5524 62.53 12.097C62.4753 11.6417 62.3624 11.2643 62.193 10.9667C62.0227 10.6691 61.7825 10.4442 61.4732 10.2918C61.1631 10.1403 60.7534 10.0641 60.2425 10.0641C59.6716 10.0641 59.1884 10.0946 58.7931 10.1555C58.3978 10.2165 58.146 10.2712 58.0366 10.3196V18.5964H56.8517V9.49851ZM74.6441 17.7386C75.1058 17.7386 75.51 17.7234 75.8569 17.6929C76.2029 17.6624 76.4978 17.623 76.7407 17.5746V14.2563C76.6071 14.1954 76.3947 14.1317 76.1025 14.0645C75.8112 13.9982 75.4096 13.9641 74.8996 13.9641C74.6083 13.9641 74.3035 13.9856 73.988 14.0278C73.6716 14.0708 73.3803 14.1613 73.1132 14.3011C72.8461 14.441 72.6264 14.6328 72.457 14.8757C72.2867 15.1186 72.2016 15.4413 72.2016 15.842C72.2016 16.1942 72.2589 16.4918 72.3746 16.7356C72.4902 16.9785 72.6542 17.173 72.8667 17.3191C73.0791 17.4652 73.3346 17.5719 73.6321 17.6382C73.9306 17.7055 74.2677 17.7386 74.6441 17.7386ZM74.5348 8.95085C75.1542 8.95085 75.6803 9.03959 76.1115 9.21527C76.5426 9.39185 76.8922 9.63476 77.1593 9.94489C77.4264 10.255 77.6209 10.6225 77.7428 11.0474C77.8638 11.4732 77.9248 11.9348 77.9248 12.4332V18.3768C77.8028 18.4136 77.6272 18.453 77.3959 18.4951C77.1647 18.5382 76.8975 18.5839 76.5937 18.6323C76.2898 18.6807 75.9528 18.7201 75.5817 18.7506C75.2106 18.7811 74.8315 18.7963 74.4424 18.7963C73.9441 18.7963 73.4852 18.7416 73.0657 18.6323C72.6462 18.5229 72.2814 18.3499 71.9721 18.1124C71.662 17.8758 71.4191 17.5719 71.2425 17.2008C71.0659 16.8306 70.9781 16.378 70.9781 15.8429C70.9781 15.3319 71.0749 14.8945 71.2694 14.5306C71.4639 14.1658 71.7373 13.8655 72.0895 13.628C72.4418 13.3913 72.8613 13.2175 73.3471 13.1081C73.8329 12.9987 74.3618 12.9441 74.9328 12.9441C75.1031 12.9441 75.2823 12.953 75.4706 12.9719C75.6588 12.9898 75.8408 13.0149 76.0173 13.0445C76.193 13.0749 76.3454 13.1054 76.4727 13.1359C76.6 13.1664 76.6887 13.1933 76.7371 13.2184V12.6348C76.7371 12.3068 76.7129 11.9877 76.6645 11.6775C76.6161 11.3674 76.5094 11.0877 76.3454 10.8386C76.1814 10.5894 75.9501 10.3895 75.6525 10.2371C75.3549 10.0856 74.9623 10.0094 74.4765 10.0094C73.7836 10.0094 73.2673 10.0578 72.9267 10.1555C72.5861 10.2532 72.3369 10.3321 72.1792 10.3922L72.0151 9.35331C72.2213 9.2565 72.5404 9.16507 72.9724 9.07992C73.4072 8.99387 73.9271 8.95085 74.5348 8.95085ZM80.0401 9.49851C80.3924 9.40171 80.8513 9.29235 81.4169 9.17045C81.9825 9.04945 82.7139 8.98849 83.6139 8.98849C84.8051 8.98849 85.6674 9.33448 86.2025 10.0274C86.2635 9.97896 86.3818 9.89649 86.5584 9.78086C86.7341 9.66523 86.9563 9.54692 87.2235 9.42501C87.4906 9.30401 87.8034 9.20003 88.1619 9.11488C88.5205 9.02973 88.9184 8.9876 89.3559 8.9876C90.0729 8.9876 90.6529 9.09426 91.0966 9.3067C91.5403 9.51913 91.8836 9.81672 92.1265 10.2004C92.3694 10.5831 92.5334 11.042 92.6186 11.5771C92.7037 12.1123 92.7458 12.6958 92.7458 13.3277V18.5964H91.5609V13.7104C91.5609 13.0902 91.5331 12.5524 91.4784 12.097C91.4237 11.6417 91.3144 11.2643 91.1504 10.9667C90.9863 10.6691 90.7524 10.4442 90.4485 10.2918C90.1446 10.1403 89.7494 10.0641 89.2635 10.0641C88.8987 10.0641 88.568 10.0982 88.2704 10.1645C87.9728 10.2317 87.7147 10.3133 87.4959 10.411C87.2772 10.5087 87.098 10.6055 86.9581 10.7023C86.8183 10.8 86.7179 10.8726 86.657 10.921C86.7663 11.2374 86.8488 11.5924 86.9035 11.9877C86.9581 12.383 86.9859 12.7989 86.9859 13.2363V18.5964H85.801V13.7104C85.801 13.0902 85.7741 12.5524 85.7185 12.097C85.6638 11.6417 85.5509 11.2643 85.3815 10.9667C85.2112 10.6691 84.9709 10.4442 84.6617 10.2918C84.3516 10.1403 83.9419 10.0641 83.431 10.0641C82.86 10.0641 82.3769 10.0946 81.9816 10.1555C81.5863 10.2165 81.3345 10.2712 81.2251 10.3196V18.5964H80.0401V9.49851ZM97.8335 17.7386C98.2951 17.7386 98.6994 17.7234 99.0463 17.6929C99.3923 17.6624 99.6872 17.623 99.9301 17.5746V14.2563C99.7965 14.1954 99.5841 14.1317 99.2919 14.0645C99.0006 13.9982 98.599 13.9641 98.089 13.9641C97.7977 13.9641 97.4929 13.9856 97.1774 14.0278C96.861 14.0708 96.5697 14.1613 96.3025 14.3011C96.0354 14.441 95.8158 14.6328 95.6464 14.8757C95.4761 15.1186 95.391 15.4413 95.391 15.842C95.391 16.1942 95.4483 16.4918 95.564 16.7356C95.6796 16.9785 95.8436 17.173 96.0561 17.3191C96.2685 17.4652 96.5239 17.5719 96.8215 17.6382C97.1191 17.7055 97.457 17.7386 97.8335 17.7386ZM97.7242 8.95085C98.3435 8.95085 98.8697 9.03959 99.3008 9.21527C99.732 9.39185 100.082 9.63476 100.349 9.94489C100.616 10.255 100.81 10.6225 100.932 11.0474C101.053 11.4732 101.114 11.9348 101.114 12.4332V18.3768C100.992 18.4136 100.817 18.453 100.585 18.4951C100.354 18.5382 100.087 18.5839 99.7831 18.6323C99.4792 18.6807 99.1422 18.7201 98.7711 18.7506C98.4 18.7811 98.0208 18.7963 97.6318 18.7963C97.1335 18.7963 96.6745 18.7416 96.255 18.6323C95.8356 18.5229 95.4707 18.3499 95.1615 18.1124C94.8514 17.8758 94.6085 17.5719 94.4319 17.2008C94.2553 16.8306 94.1674 16.378 94.1674 15.8429C94.1674 15.3319 94.2643 14.8945 94.4588 14.5306C94.6533 14.1658 94.9267 13.8655 95.2789 13.628C95.6312 13.3913 96.0507 13.2175 96.5365 13.1081C97.0223 12.9987 97.5512 12.9441 98.1221 12.9441C98.2924 12.9441 98.4717 12.953 98.6599 12.9719C98.8482 12.9898 99.0301 13.0149 99.2067 13.0445C99.3824 13.0749 99.5348 13.1054 99.6621 13.1359C99.7893 13.1664 99.8781 13.1933 99.9265 13.2184V12.6348C99.9265 12.3068 99.9023 11.9877 99.8539 11.6775C99.8055 11.3674 99.6988 11.0877 99.5348 10.8386C99.3707 10.5894 99.1395 10.3895 98.8419 10.2371C98.5443 10.0856 98.1517 10.0094 97.6659 10.0094C96.973 10.0094 96.4567 10.0578 96.1161 10.1555C95.7755 10.2532 95.5263 10.3321 95.3686 10.3922L95.2045 9.35331C95.4107 9.2565 95.7298 9.16507 96.1618 9.07992C96.5965 8.99387 97.1164 8.95085 97.7242 8.95085Z" fill="#79747E"/>
</svg>
